<svg width="104" height="58" viewBox="0 0 104 58" fill="none" xmlns="http://www.w3.org/2000/svg">
<g filter="url(#filter0_dd)">
<path fill-rule="evenodd" clip-rule="evenodd" d="M79.3079 31.6763C80.7887 31.6763 81.7778 33.1169 81.2745 34.5457C81.0264 35.2613 80.5398 35.8058 80.0527 36.3508C80.0112 36.3973 79.9697 36.4437 79.9283 36.4903C79.583 36.8756 79.2494 37.2729 78.9626 37.6997C78.5529 38.3104 78.348 39.0159 78.2134 39.7392C78.1724 39.9644 78.1197 40.1838 78.0495 40.3972C77.6866 41.5711 76.7267 42.1224 75.562 41.7608C74.128 41.3162 73.3262 40.249 72.9399 38.8321C72.6648 37.8124 72.8228 36.846 73.4374 35.9923C73.6247 35.7255 73.9407 35.5299 74.2334 35.3757C74.4638 35.2542 74.7257 35.1924 74.9836 35.1316C75.0401 35.1183 75.0965 35.105 75.1523 35.0911C75.8312 34.9251 76.2995 34.5161 76.6448 33.9113C76.9257 33.4193 77.2242 32.9272 77.5871 32.4944C78.0261 31.9727 78.6114 31.6763 79.3079 31.6763ZM94.3669 37.8835C94.2909 39.425 93.6587 40.6522 92.336 41.4703C91.8151 41.7905 91.2473 41.9446 90.6269 41.832C89.9831 41.7134 89.509 41.3636 89.269 40.747C89.1227 40.3617 89.0173 39.9585 88.9354 39.5554C88.6954 38.3934 88.1687 37.4033 87.3375 36.5555C86.9161 36.1227 86.5357 35.6425 86.1962 35.1445C85.886 34.6939 85.7221 34.1663 85.7865 33.6031C85.9796 31.9372 87.7648 31.1368 89.1402 32.0972C89.7607 32.53 90.1821 33.1347 90.4923 33.8165C90.8318 34.5457 91.3878 34.9489 92.1428 35.1327C92.4764 35.2157 92.8101 35.3402 93.1203 35.4943C94.0158 35.939 94.2792 36.763 94.3611 37.6938C94.3699 37.7338 94.3688 37.7838 94.3677 37.8338V37.8339C94.3674 37.8456 94.3672 37.8573 94.367 37.8689C94.367 37.8738 94.3669 37.8787 94.3669 37.8835ZM84.1443 41.9778C83.968 41.9495 83.7917 41.9212 83.6158 41.8912C83.6158 41.897 83.6152 41.9033 83.6145 41.9099C83.6132 41.9237 83.6118 41.9385 83.6158 41.9505C83.4987 41.9594 83.3816 41.9653 83.2646 41.9713C83.1475 41.9772 83.0305 41.9831 82.9134 41.992C82.2462 42.0454 81.5906 42.158 81.0054 42.5019C79.8991 43.154 79.8231 44.5057 80.859 45.2646C81.0483 45.404 81.2597 45.5146 81.47 45.6247C81.5458 45.6644 81.6215 45.704 81.696 45.7448C81.8079 45.8071 81.9223 45.8668 82.0368 45.9266C82.2274 46.0262 82.4181 46.1257 82.5974 46.2369C82.89 46.4207 83.1007 46.6875 83.1183 47.0491C83.1592 47.891 82.7612 48.5905 81.7955 48.5965C81.6024 48.5965 81.3916 48.5965 81.2161 48.5313C80.9674 48.4411 80.7252 48.3362 80.4827 48.2312C80.2628 48.1361 80.0426 48.0408 79.8172 47.9562C79.6826 47.9028 79.4777 47.9028 79.3665 47.9799C79.2729 48.0451 79.2202 48.2585 79.2378 48.389C79.2553 48.4957 79.3899 48.6083 79.4953 48.6854C81.0522 49.7703 82.7671 50.1853 84.6342 49.9245C85.7814 49.7644 86.829 49.3316 87.7772 48.6498C88.0113 48.4838 88.0699 48.2645 87.9469 48.0688C87.8182 47.8673 87.6075 47.8317 87.3558 47.974C87.3119 47.9977 87.2695 48.0214 87.2271 48.0451C87.1846 48.0688 87.1422 48.0925 87.0983 48.1163C86.513 48.4364 85.9043 48.6558 85.2253 48.5905C84.6693 48.5313 84.283 48.1933 84.1425 47.6538C83.9786 47.0195 84.1074 46.5808 84.5991 46.2488C84.7722 46.1318 84.9591 46.0369 85.1461 45.9419C85.2815 45.8731 85.4169 45.8042 85.5472 45.727C85.6228 45.6829 85.6994 45.64 85.7761 45.597C86.0502 45.4434 86.3253 45.2893 86.5539 45.0808C87.2973 44.405 87.2329 43.2548 86.4252 42.662C86.1794 42.4782 85.8867 42.3181 85.5941 42.247C85.1172 42.1338 84.6309 42.0558 84.1443 41.9778Z" fill="white"/>
<path fill-rule="evenodd" clip-rule="evenodd" d="M30.1485 49.9999V45.1894H11.5336L29.5791 23.1924V19.3877H4.3066V24.1982H22.0456L4 46.1952V49.9999H30.1485ZM58.7789 34.6938C58.7789 40.1344 54.3593 44.5593 48.8896 44.5593C43.4199 44.5593 39.0002 40.1344 39.0002 34.6938C39.0002 29.2532 43.4199 24.8283 48.8896 24.8283C54.3593 24.8283 58.7789 29.2532 58.7789 34.6938ZM64.2195 34.6938C64.2195 43.1471 57.3561 49.9999 48.8896 49.9999C40.4231 49.9999 33.5596 43.1471 33.5596 34.6938C33.5596 26.2405 40.4231 19.3877 48.8896 19.3877C57.3561 19.3877 64.2195 26.2405 64.2195 34.6938Z" fill="white"/>
<path fill-rule="evenodd" clip-rule="evenodd" d="M56.3476 4.98807H53.8291V16.1798H56.3476V4.98807ZM53.95 2.70362C54.2589 2.99703 54.6417 3.14374 55.0984 3.14374C55.5685 3.14374 55.9514 2.99005 56.2469 2.68266C56.5558 2.3613 56.7103 1.97008 56.7103 1.509C56.7103 1.07586 56.5558 0.719568 56.2469 0.440123C55.9379 0.146708 55.5551 0 55.0984 0C54.6417 0 54.2589 0.153694 53.95 0.461081C53.6411 0.754498 53.4866 1.12476 53.4866 1.57187C53.4866 2.01898 53.6411 2.39623 53.95 2.70362ZM48.0051 0.628748H50.5236V16.1798H48.0051V0.628748ZM23.1203 15.593C23.9933 16.082 24.9739 16.3265 26.0619 16.3265C27.1633 16.3265 28.1505 16.082 29.0236 15.593C29.8967 15.1039 30.575 14.4263 31.0586 13.56C31.5556 12.6798 31.804 11.6877 31.804 10.5839C31.804 9.48013 31.5556 8.49509 31.0586 7.62882C30.575 6.76254 29.8967 6.08489 29.0236 5.59586C28.1505 5.10684 27.1633 4.86232 26.0619 4.86232C24.9739 4.86232 23.9933 5.10684 23.1203 5.59586C22.2472 6.08489 21.5622 6.76254 21.0652 7.62882C20.5816 8.49509 20.3398 9.48013 20.3398 10.5839C20.3398 11.6877 20.5816 12.6798 21.0652 13.56C21.5622 14.4263 22.2472 15.1039 23.1203 15.593ZM28.3587 13.1199C27.7543 13.7626 26.9887 14.084 26.0619 14.084C25.1351 14.084 24.3694 13.7626 23.765 13.1199C23.174 12.4772 22.8785 11.6319 22.8785 10.5839C22.8785 9.53602 23.174 8.6907 23.765 8.04798C24.3694 7.40526 25.1351 7.0839 26.0619 7.0839C26.9887 7.0839 27.7543 7.40526 28.3587 8.04798C28.9632 8.6907 29.2654 9.53602 29.2654 10.5839C29.2654 11.6319 28.9632 12.4772 28.3587 13.1199ZM43.5812 6.09886C42.7618 5.2745 41.6738 4.86232 40.3172 4.86232C39.5247 4.86232 38.8128 4.99506 38.1815 5.26053C37.5502 5.526 37.0264 5.91722 36.61 6.43419V4.98807H34.2124V16.1798H36.7309V10.5211C36.7309 9.43123 36.9995 8.59988 37.5368 8.02702C38.0741 7.44019 38.8061 7.14678 39.7329 7.14678C40.5523 7.14678 41.1836 7.39828 41.6268 7.90127C42.0701 8.3903 42.2917 9.12384 42.2917 10.1019V16.1798H44.8102V9.76656C44.8102 8.14579 44.4005 6.92322 43.5812 6.09886ZM65.758 4.86232C67.1146 4.86232 68.2026 5.2745 69.0219 6.09886C69.8413 6.92322 70.251 8.14579 70.251 9.76656V16.1798H67.7325V10.1019C67.7325 9.12384 67.5108 8.3903 67.0676 7.90127C66.6243 7.39828 65.993 7.14678 65.1737 7.14678C64.2469 7.14678 63.5148 7.44019 62.9775 8.02702C62.4403 8.59988 62.1716 9.43123 62.1716 10.5211V16.1798H59.6531V4.98807H62.0507V6.43419C62.4671 5.91722 62.991 5.526 63.6223 5.26053C64.2536 4.99506 64.9655 4.86232 65.758 4.86232ZM83.6182 11.4223C83.6451 11.0869 83.6585 10.8284 83.6585 10.6468C83.6585 9.50109 83.4234 8.49509 82.9533 7.62882C82.4966 6.74857 81.8519 6.07092 81.0191 5.59586C80.1998 5.10684 79.2662 4.86232 78.2185 4.86232C77.1574 4.86232 76.2038 5.10684 75.3575 5.59586C74.5113 6.08489 73.8464 6.76953 73.3629 7.64978C72.8928 8.51605 72.6577 9.4941 72.6577 10.5839C72.6577 11.6877 72.8995 12.6798 73.383 13.56C73.88 14.4263 74.5785 15.1039 75.4784 15.593C76.3784 16.082 77.4193 16.3265 78.6014 16.3265C79.5282 16.3265 80.361 16.1728 81.0997 15.8654C81.8385 15.558 82.4496 15.1039 82.9332 14.5031L81.5833 12.8893C80.8176 13.6997 79.8438 14.1049 78.6618 14.1049C77.735 14.1049 76.9559 13.8674 76.3246 13.3923C75.7068 12.9033 75.324 12.2466 75.1762 11.4223H83.6182ZM76.1635 7.71265C76.7276 7.20965 77.4126 6.95815 78.2185 6.95815C79.0379 6.95815 79.7229 7.20965 80.2736 7.71265C80.8244 8.21565 81.1534 8.87234 81.2609 9.68273H75.1561C75.2769 8.85837 75.6127 8.20168 76.1635 7.71265ZM97.0237 31.6501C98.8185 30.4484 100 28.4041 100 26.0843C100 22.3859 96.9971 19.3877 93.2929 19.3877C90.9235 19.3877 88.8411 20.6144 87.6479 22.4665C91.9921 23.9574 95.45 27.3508 97.0237 31.6501ZM70.2604 31.6504C68.4654 30.4487 67.2839 28.4044 67.2839 26.0845C67.2839 22.3861 70.2868 19.3879 73.991 19.3879C76.3604 19.3879 78.4429 20.6147 79.636 22.4668C75.2919 23.9577 71.834 27.3511 70.2604 31.6504Z" fill="white"/>
</g>
<defs>
<filter id="filter0_dd" x="0" y="0" width="104" height="58" filterUnits="userSpaceOnUse" color-interpolation-filters="sRGB">
<feFlood flood-opacity="0" result="BackgroundImageFix"/>
<feColorMatrix in="SourceAlpha" type="matrix" values="0 0 0 0 0 0 0 0 0 0 0 0 0 0 0 0 0 0 127 0"/>
<feOffset dy="4"/>
<feGaussianBlur stdDeviation="2"/>
<feColorMatrix type="matrix" values="0 0 0 0 0 0 0 0 0 0 0 0 0 0 0 0 0 0 0.25 0"/>
<feBlend mode="normal" in2="BackgroundImageFix" result="effect1_dropShadow"/>
<feColorMatrix in="SourceAlpha" type="matrix" values="0 0 0 0 0 0 0 0 0 0 0 0 0 0 0 0 0 0 127 0"/>
<feOffset dy="4"/>
<feGaussianBlur stdDeviation="2"/>
<feColorMatrix type="matrix" values="0 0 0 0 0 0 0 0 0 0 0 0 0 0 0 0 0 0 0.25 0"/>
<feBlend mode="normal" in2="effect1_dropShadow" result="effect2_dropShadow"/>
<feBlend mode="normal" in="SourceGraphic" in2="effect2_dropShadow" result="shape"/>
</filter>
</defs>
</svg>
