<svg id="Flat" height="512" viewBox="0 0 512 512" width="512" xmlns="http://www.w3.org/2000/svg"><path d="m24 256h240v208h-240z" fill="#7e8589"/><path d="m296 160h192v256h-192z" fill="#7e8589"/><path d="m72 48h192v176h-192z" fill="#7e8589"/><g fill="#6a7073"><path d="m117.66 93.66a8.015 8.015 0 0 1 -11.32 0l-34.34-34.34v-11.32h11.32l34.34 34.34a8.015 8.015 0 0 1 0 11.32z"/><path d="m264 48v11.32l-34.34 34.34a8 8 0 0 1 -11.32-11.32l34.34-34.34z"/><path d="m117.66 189.66-34.34 34.34h-11.32v-11.32l34.34-34.34a8 8 0 0 1 11.32 11.32z"/><path d="m264 212.68v11.32h-11.32l-34.34-34.34a8 8 0 0 1 11.32-11.32z"/><path d="m69.66 301.66a8.015 8.015 0 0 1 -11.32 0l-34.34-34.34v-11.32h11.32l34.34 34.34a8.015 8.015 0 0 1 0 11.32z"/><path d="m69.66 429.66-34.34 34.34h-11.32v-11.32l34.34-34.34a8 8 0 0 1 11.32 11.32z"/><path d="m264 256v11.32l-34.34 34.34a8 8 0 0 1 -11.32-11.32l34.34-34.34z"/><path d="m264 452.68v11.32h-11.32l-34.34-34.34a8 8 0 0 1 11.32-11.32z"/><path d="m341.66 205.66a8.015 8.015 0 0 1 -11.32 0l-34.34-34.34v-11.32h11.32l34.34 34.34a8.015 8.015 0 0 1 0 11.32z"/><path d="m488 160v11.32l-34.34 34.34a8 8 0 0 1 -11.32-11.32l34.34-34.34z"/><path d="m341.66 381.66-34.34 34.34h-11.32v-11.32l34.34-34.34a8 8 0 0 1 11.32 11.32z"/><path d="m488 404.68v11.32h-11.32l-34.34-34.34a8 8 0 0 1 11.32-11.32z"/></g><path d="m56 288h176v144h-176z" fill="#cfdb8c"/><path d="m328 192h128v192h-128z" fill="#f0dfce"/><path d="m104 80h128v112h-128z" fill="#a3d4f7"/><path d="m96 320h48a0 0 0 0 1 0 0v32a16 16 0 0 1 -16 16h-16a16 16 0 0 1 -16-16v-32a0 0 0 0 1 0 0z" fill="#f7cca9"/><path d="m144 320h48a0 0 0 0 1 0 0v32a16 16 0 0 1 -16 16h-16a16 16 0 0 1 -16-16v-32a0 0 0 0 1 0 0z" fill="#f7cca9"/><path d="m120 368a32 32 0 0 0 -32 32v32h64v-32a32 32 0 0 0 -32-32z" fill="#35a872"/><path d="m168 368a32 32 0 0 0 -32 32v32h64v-32a32 32 0 0 0 -32-32z" fill="#3dc285"/><path d="m112 288h16a16 16 0 0 1 16 16v16a0 0 0 0 1 0 0h-48a0 0 0 0 1 0 0v-16a16 16 0 0 1 16-16z" fill="#ffb632"/><path d="m160 288h16a16 16 0 0 1 16 16v16a0 0 0 0 1 0 0h-48a0 0 0 0 1 0 0v-16a16 16 0 0 1 16-16z" fill="#ffb632"/><path d="m368 256h48a0 0 0 0 1 0 0v32a16 16 0 0 1 -16 16h-16a16 16 0 0 1 -16-16v-32a0 0 0 0 1 0 0z" fill="#f7cca9"/><path d="m392 304a32 32 0 0 0 -32 32v48h64v-48a32 32 0 0 0 -32-32z" fill="#35a872"/><path d="m384 224h16a16 16 0 0 1 16 16v16a0 0 0 0 1 0 0h-48a0 0 0 0 1 0 0v-16a16 16 0 0 1 16-16z" fill="#ffb632"/><path d="m144 112-40 80h80z" fill="#35a872"/><path d="m192 152-40 40h80z" fill="#3dc285"/><circle cx="200" cy="112" fill="#ffb632" r="8"/></svg>